<?xml version='1.0' encoding='ASCII' standalone='yes'?>
<svg xmlns:xlink="http://www.w3.org/1999/xlink" xmlns="http://www.w3.org/2000/svg" version="1.1" width="380" viewBox="0 0 380 360" height="360">
  <g>
    <g transform="translate(-140, -60) scale(0.925925925926) ">
      <clipPath id="p.0">
        <path d="m0 0l720.0 0l0 540.0l-720.0 0l0 -540.0z" clip-rule="nonzero"/>
      </clipPath>
      <g clip-path="url(#p.0)" fill="none" stroke="none">
        <path fill="#000000" fill-opacity="0.0" d="m0 0l720.0 0l0 540.0l-720.0 0z" fill-rule="evenodd"/>
        <path fill="#000000" fill-opacity="0.0" d="m200.0 296.0l160.0 0l0 128.0l-160.0 0z" fill-rule="evenodd"/>
        <path stroke="#000000" stroke-width="1.0" stroke-linejoin="round" stroke-linecap="butt" d="m200.0 296.0l160.0 0l0 128.0l-160.0 0z" fill-rule="evenodd"/>
        <path fill="#dfebff" d="m200.0 384.0l160.0 0l0 40.0l-160.0 0z" fill-rule="evenodd"/>
        <path stroke="#000000" stroke-width="1.0" stroke-linejoin="round" stroke-linecap="butt" d="m200.0 384.0l160.0 0l0 40.0l-160.0 0z" fill-rule="evenodd"/>
        <path fill="#000000" fill-opacity="0.0" d="m376.47244 120.0l175.52756 0l0 160.0l-175.52756 0z" fill-rule="evenodd"/>
        <path stroke="#000000" stroke-width="1.0" stroke-linejoin="round" stroke-linecap="butt" d="m376.47244 120.0l175.52756 0l0 160.0l-175.52756 0z" fill-rule="evenodd"/>
        <path fill="#000000" fill-opacity="0.0" d="m376.0 296.0l176.0 0l0 128.0l-176.0 0z" fill-rule="evenodd"/>
        <path stroke="#000000" stroke-width="1.0" stroke-linejoin="round" stroke-linecap="butt" d="m376.0 296.0l176.0 0l0 128.0l-176.0 0z" fill-rule="evenodd"/>
        <path fill="#a0bfff" d="m256.0 384.0l24.0 0l0 40.0l-24.0 0z" fill-rule="evenodd"/>
        <path stroke="#000000" stroke-width="1.0" stroke-linejoin="round" stroke-linecap="butt" d="m256.0 384.0l24.0 0l0 40.0l-24.0 0z" fill-rule="evenodd"/>
        <path fill="#ffffd8" d="m424.0 120.0l48.0 0l0 160.0l-48.0 0z" fill-rule="evenodd"/>
        <path stroke="#000000" stroke-width="1.0" stroke-linejoin="round" stroke-linecap="butt" d="m424.0 120.0l48.0 0l0 160.0l-48.0 0z" fill-rule="evenodd"/>
        <path fill="#fff480" d="m424.0 176.0l48.0 0l0 24.0l-48.0 0z" fill-rule="evenodd"/>
        <path stroke="#000000" stroke-width="1.0" stroke-linejoin="round" stroke-linecap="butt" d="m424.0 176.0l48.0 0l0 24.0l-48.0 0z" fill-rule="evenodd"/>
        <path fill="#000000" fill-opacity="0.0" d="m472.0 296.0l0 128.0" fill-rule="evenodd"/>
        <path stroke="#000000" stroke-width="1.0" stroke-linejoin="round" stroke-linecap="butt" d="m472.0 296.0l0 128.0" fill-rule="evenodd"/>
        <path fill="#000000" fill-opacity="0.0" d="m376.0 384.0l176.0 0" fill-rule="evenodd"/>
        <path stroke="#000000" stroke-width="1.0" stroke-linejoin="round" stroke-linecap="butt" d="m376.0 384.0l176.0 0" fill-rule="evenodd"/>
        <path fill="#000000" fill-opacity="0.0" d="m424.0 296.0l0 128.0" fill-rule="evenodd"/>
        <path stroke="#000000" stroke-width="1.0" stroke-linejoin="round" stroke-linecap="butt" d="m424.0 296.0l0 128.0" fill-rule="evenodd"/>
        <path fill="#d9ffc9" d="m424.0 384.0l48.0 0l0 40.0l-48.0 0z" fill-rule="evenodd"/>
        <path stroke="#000000" stroke-width="1.0" stroke-linejoin="round" stroke-linecap="butt" d="m424.0 384.0l48.0 0l0 40.0l-48.0 0z" fill-rule="evenodd"/>
        <path fill="#000000" fill-opacity="0.0" d="m476.61942 387.1496l0 0c0.7392578 0 1.4482727 0.29367065 1.9710083 0.81640625c0.5227356 0.5227661 0.81640625 1.2317505 0.81640625 1.9710083l0 11.275574c0 1.5394592 1.2479553 2.7874146 2.787384 2.7874146l0 0c-1.5394287 0 -2.787384 1.2479553 -2.787384 2.7874146l0 11.275574c0 1.5394287 -1.2479553 2.7874146 -2.7874146 2.7874146z" fill-rule="evenodd"/>
        <path fill="#000000" fill-opacity="0.0" d="m476.61942 387.1496l0 0c0.7392578 0 1.4482727 0.29367065 1.9710083 0.81640625c0.5227356 0.5227661 0.81640625 1.2317505 0.81640625 1.9710083l0 11.275574c0 1.5394592 1.2479553 2.7874146 2.787384 2.7874146l0 0c-1.5394287 0 -2.787384 1.2479553 -2.787384 2.7874146l0 11.275574c0 1.5394287 -1.2479553 2.7874146 -2.7874146 2.7874146" fill-rule="evenodd"/>
        <path stroke="#000000" stroke-width="1.0" stroke-linejoin="round" stroke-linecap="butt" d="m476.61942 387.1496l0 0c0.7392578 0 1.4482727 0.29367065 1.9710083 0.81640625c0.5227356 0.5227661 0.81640625 1.2317505 0.81640625 1.9710083l0 11.275574c0 1.5394592 1.2479553 2.7874146 2.787384 2.7874146l0 0c-1.5394287 0 -2.787384 1.2479553 -2.787384 2.7874146l0 11.275574c0 1.5394287 -1.2479553 2.7874146 -2.7874146 2.7874146" fill-rule="evenodd"/>
        <path fill="#000000" fill-opacity="0.0" d="m468.6929 204.0751l0 0c0 0.8186188 -0.3251953 1.603714 -0.9040222 2.1825714c-0.5788574 0.5788574 -1.3639526 0.90405273 -2.1825867 0.90405273l-14.519684 0c-1.7046814 0 -3.086609 1.3819122 -3.086609 3.086609l0 0c0 -1.7046967 -1.3819275 -3.086609 -3.086609 -3.086609l-14.519684 0c-1.7046814 0 -3.086609 -1.3819275 -3.086609 -3.0866241z" fill-rule="evenodd"/>
        <path fill="#000000" fill-opacity="0.0" d="m468.6929 204.0751l0 0c0 0.8186188 -0.3251953 1.603714 -0.9040222 2.1825714c-0.5788574 0.5788574 -1.3639526 0.90405273 -2.1825867 0.90405273l-14.519684 0c-1.7046814 0 -3.086609 1.3819122 -3.086609 3.086609l0 0c0 -1.7046967 -1.3819275 -3.086609 -3.086609 -3.086609l-14.519684 0c-1.7046814 0 -3.086609 -1.3819275 -3.086609 -3.0866241" fill-rule="evenodd"/>
        <path stroke="#000000" stroke-width="1.0" stroke-linejoin="round" stroke-linecap="butt" d="m468.6929 204.0751l0 0c0 0.8186188 -0.3251953 1.603714 -0.9040222 2.1825714c-0.5788574 0.5788574 -1.3639526 0.90405273 -2.1825867 0.90405273l-14.519684 0c-1.7046814 0 -3.086609 1.3819122 -3.086609 3.086609l0 0c0 -1.7046967 -1.3819275 -3.086609 -3.086609 -3.086609l-14.519684 0c-1.7046814 0 -3.086609 -1.3819275 -3.086609 -3.0866241" fill-rule="evenodd"/>
        <path fill="#000000" fill-opacity="0.0" d="m284.61942 387.1496l0 0c0.7392578 0 1.4482727 0.29367065 1.9710083 0.81640625c0.5227356 0.5227661 0.81640625 1.2317505 0.81640625 1.9710083l0 11.275574c0 1.5394592 1.2479553 2.7874146 2.787384 2.7874146l0 0c-1.5394287 0 -2.787384 1.2479553 -2.787384 2.7874146l0 11.275574c0 1.5394287 -1.2479553 2.7874146 -2.7874146 2.7874146z" fill-rule="evenodd"/>
        <path fill="#000000" fill-opacity="0.0" d="m284.61942 387.1496l0 0c0.7392578 0 1.4482727 0.29367065 1.9710083 0.81640625c0.5227356 0.5227661 0.81640625 1.2317505 0.81640625 1.9710083l0 11.275574c0 1.5394592 1.2479553 2.7874146 2.787384 2.7874146l0 0c-1.5394287 0 -2.787384 1.2479553 -2.787384 2.7874146l0 11.275574c0 1.5394287 -1.2479553 2.7874146 -2.7874146 2.7874146" fill-rule="evenodd"/>
        <path stroke="#000000" stroke-width="1.0" stroke-linejoin="round" stroke-linecap="butt" d="m284.61942 387.1496l0 0c0.7392578 0 1.4482727 0.29367065 1.9710083 0.81640625c0.5227356 0.5227661 0.81640625 1.2317505 0.81640625 1.9710083l0 11.275574c0 1.5394592 1.2479553 2.7874146 2.787384 2.7874146l0 0c-1.5394287 0 -2.787384 1.2479553 -2.787384 2.7874146l0 11.275574c0 1.5394287 -1.2479553 2.7874146 -2.7874146 2.7874146" fill-rule="evenodd"/>
        <path fill="#000000" fill-opacity="0.0" d="m468.6929 428.0751l0 0c0 0.81863403 -0.3251953 1.6037292 -0.9040222 2.1825562c-0.5788574 0.5788574 -1.3639526 0.90405273 -2.1825867 0.90405273l-14.519684 0c-1.7046814 0 -3.086609 1.3819275 -3.086609 3.086609l0 0c0 -1.7046814 -1.3819275 -3.086609 -3.086609 -3.086609l-14.519684 0c-1.7046814 0 -3.086609 -1.3819275 -3.086609 -3.086609z" fill-rule="evenodd"/>
        <path fill="#000000" fill-opacity="0.0" d="m468.6929 428.0751l0 0c0 0.81863403 -0.3251953 1.6037292 -0.9040222 2.1825562c-0.5788574 0.5788574 -1.3639526 0.90405273 -2.1825867 0.90405273l-14.519684 0c-1.7046814 0 -3.086609 1.3819275 -3.086609 3.086609l0 0c0 -1.7046814 -1.3819275 -3.086609 -3.086609 -3.086609l-14.519684 0c-1.7046814 0 -3.086609 -1.3819275 -3.086609 -3.086609" fill-rule="evenodd"/>
        <path stroke="#000000" stroke-width="1.0" stroke-linejoin="round" stroke-linecap="butt" d="m468.6929 428.0751l0 0c0 0.81863403 -0.3251953 1.6037292 -0.9040222 2.1825562c-0.5788574 0.5788574 -1.3639526 0.90405273 -2.1825867 0.90405273l-14.519684 0c-1.7046814 0 -3.086609 1.3819275 -3.086609 3.086609l0 0c0 -1.7046814 -1.3819275 -3.086609 -3.086609 -3.086609l-14.519684 0c-1.7046814 0 -3.086609 -1.3819275 -3.086609 -3.086609" fill-rule="evenodd"/>
        <path fill="#000000" fill-opacity="0.0" d="m279.8084 428.4884l0 0c0 0.76434326 -0.3036499 1.497345 -0.8440857 2.0378113c-0.5404663 0.5404663 -1.2734985 0.8440857 -2.0378113 0.8440857l-6.1417236 0c-1.5916443 0 -2.881897 1.2902832 -2.881897 2.881897l0 0c0 -1.5916138 -1.2902832 -2.881897 -2.881897 -2.881897l-6.1417236 0c-1.5916443 0 -2.881897 -1.2902527 -2.881897 -2.881897z" fill-rule="evenodd"/>
        <path fill="#000000" fill-opacity="0.0" d="m279.8084 428.4884l0 0c0 0.76434326 -0.3036499 1.497345 -0.8440857 2.0378113c-0.5404663 0.5404663 -1.2734985 0.8440857 -2.0378113 0.8440857l-6.1417236 0c-1.5916443 0 -2.881897 1.2902832 -2.881897 2.881897l0 0c0 -1.5916138 -1.2902832 -2.881897 -2.881897 -2.881897l-6.1417236 0c-1.5916443 0 -2.881897 -1.2902527 -2.881897 -2.881897" fill-rule="evenodd"/>
        <path stroke="#000000" stroke-width="1.0" stroke-linejoin="round" stroke-linecap="butt" d="m279.8084 428.4884l0 0c0 0.76434326 -0.3036499 1.497345 -0.8440857 2.0378113c-0.5404663 0.5404663 -1.2734985 0.8440857 -2.0378113 0.8440857l-6.1417236 0c-1.5916443 0 -2.881897 1.2902832 -2.881897 2.881897l0 0c0 -1.5916138 -1.2902832 -2.881897 -2.881897 -2.881897l-6.1417236 0c-1.5916443 0 -2.881897 -1.2902527 -2.881897 -2.881897" fill-rule="evenodd"/>
        <path fill="#000000" fill-opacity="0.0" d="m475.22675 176.09471l0 0c0.76431274 0 1.4973145 0.30363464 2.0377808 0.8440857c0.5404663 0.5404663 0.8440857 1.2734833 0.8440857 2.0378113l0 6.1417236c0 1.591629 1.2902832 2.881897 2.881897 2.881897l0 0c-1.5916138 0 -2.881897 1.290268 -2.881897 2.8818817l0 6.141739c0 1.591629 -1.2902527 2.881897 -2.8818665 2.881897z" fill-rule="evenodd"/>
        <path fill="#000000" fill-opacity="0.0" d="m475.22675 176.09471l0 0c0.76431274 0 1.4973145 0.30363464 2.0377808 0.8440857c0.5404663 0.5404663 0.8440857 1.2734833 0.8440857 2.0378113l0 6.1417236c0 1.591629 1.2902832 2.881897 2.881897 2.881897l0 0c-1.5916138 0 -2.881897 1.290268 -2.881897 2.8818817l0 6.141739c0 1.591629 -1.2902527 2.881897 -2.8818665 2.881897" fill-rule="evenodd"/>
        <path stroke="#000000" stroke-width="1.0" stroke-linejoin="round" stroke-linecap="butt" d="m475.22675 176.09471l0 0c0.76431274 0 1.4973145 0.30363464 2.0377808 0.8440857c0.5404663 0.5404663 0.8440857 1.2734833 0.8440857 2.0378113l0 6.1417236c0 1.591629 1.2902832 2.881897 2.881897 2.881897l0 0c-1.5916138 0 -2.881897 1.290268 -2.881897 2.8818817l0 6.141739c0 1.591629 -1.2902527 2.881897 -2.8818665 2.881897" fill-rule="evenodd"/>
        <path fill="#000000" fill-opacity="0.0" d="m272.79144 288.77246l91.33856 0l0 42.4252l-91.33856 0z" fill-rule="evenodd"/>
        <path fill="#000000" d="m296.13004 313.13248l6.5 -11.453125l1.8125 0l1.890625 11.453125l-1.484375 0l-0.5625 -3.296875l-4.625 0l-1.84375 3.296875l-1.6875 0zm4.1875 -4.484375l3.78125 0l-0.4375 -2.875q-0.265625 -1.703125 -0.328125 -2.84375q-0.390625 0.984375 -1.140625 2.328125l-1.875 3.390625z" fill-rule="nonzero"/>
        <path fill="#000000" d="m312.63785 313.13248l0 -8.296875l1.25 0l0 1.15625q0.390625 -0.609375 1.03125 -0.96875q0.65625 -0.375 1.484375 -0.375q0.921875 0 1.515625 0.390625q0.59375 0.375 0.828125 1.0625q0.984375 -1.453125 2.5625 -1.453125q1.234375 0 1.890625 0.6875q0.671875 0.671875 0.671875 2.09375l0 5.703125l-1.390625 0l0 -5.234375q0 -0.84375 -0.140625 -1.203125q-0.140625 -0.375 -0.5 -0.59375q-0.359375 -0.234375 -0.84375 -0.234375q-0.875 0 -1.453125 0.578125q-0.578125 0.578125 -0.578125 1.859375l0 4.828125l-1.40625 0l0 -5.390625q0 -0.9375 -0.34375 -1.40625q-0.34375 -0.46875 -1.125 -0.46875q-0.59375 0 -1.09375 0.3125q-0.5 0.3125 -0.734375 0.921875q-0.21875 0.59375 -0.21875 1.71875l0 4.3125l-1.40625 0zm18.734375 -1.03125q-0.78125 0.671875 -1.5 0.953125q-0.71875 0.265625 -1.546875 0.265625q-1.375 0 -2.109375 -0.671875q-0.734375 -0.671875 -0.734375 -1.703125q0 -0.609375 0.28125 -1.109375q0.28125 -0.515625 0.71875 -0.8125q0.453125 -0.3125 1.015625 -0.46875q0.421875 -0.109375 1.25 -0.203125q1.703125 -0.203125 2.515625 -0.484375q0 -0.296875 0 -0.375q0 -0.859375 -0.390625 -1.203125q-0.546875 -0.484375 -1.609375 -0.484375q-0.984375 0 -1.46875 0.359375q-0.46875 0.34375 -0.6875 1.21875l-1.375 -0.1875q0.1875 -0.875 0.609375 -1.421875q0.4375 -0.546875 1.25 -0.828125q0.8125 -0.296875 1.875 -0.296875q1.0625 0 1.71875 0.25q0.671875 0.25 0.984375 0.625q0.3125 0.375 0.4375 0.953125q0.078125 0.359375 0.078125 1.296875l0 1.875q0 1.96875 0.078125 2.484375q0.09375 0.515625 0.359375 1.0l-1.46875 0q-0.21875 -0.4375 -0.28125 -1.03125zm-0.109375 -3.140625q-0.765625 0.3125 -2.296875 0.53125q-0.875 0.125 -1.234375 0.28125q-0.359375 0.15625 -0.5625 0.46875q-0.1875 0.296875 -0.1875 0.65625q0 0.5625 0.421875 0.9375q0.4375 0.375 1.25 0.375q0.8125 0 1.4375 -0.34375q0.640625 -0.359375 0.9375 -0.984375q0.234375 -0.46875 0.234375 -1.40625l0 -0.515625zm6.6640625 2.90625l0.203125 1.25q-0.59375 0.125 -1.0625 0.125q-0.765625 0 -1.1875 -0.234375q-0.421875 -0.25 -0.59375 -0.640625q-0.171875 -0.40625 -0.171875 -1.671875l0 -4.765625l-1.03125 0l0 -1.09375l1.03125 0l0 -2.0625l1.40625 -0.84375l0 2.90625l1.40625 0l0 1.09375l-1.40625 0l0 4.84375q0 0.609375 0.0625 0.78125q0.078125 0.171875 0.25 0.28125q0.171875 0.09375 0.484375 0.09375q0.234375 0 0.609375 -0.0625zm1.3671875 1.265625l0 -8.296875l1.265625 0l0 1.25q0.484375 -0.875 0.890625 -1.15625q0.40625 -0.28125 0.90625 -0.28125q0.703125 0 1.4375 0.453125l-0.484375 1.296875q-0.515625 -0.296875 -1.03125 -0.296875q-0.453125 0 -0.828125 0.28125q-0.359375 0.265625 -0.515625 0.765625q-0.234375 0.75 -0.234375 1.640625l0 4.34375l-1.40625 0zm5.34375 -9.84375l0 -1.609375l1.40625 0l0 1.609375l-1.40625 0zm0 9.84375l0 -8.296875l1.40625 0l0 8.296875l-1.40625 0zm2.6171875 0l3.03125 -4.3125l-2.8125 -3.984375l1.765625 0l1.265625 1.9375q0.359375 0.5625 0.578125 0.9375q0.34375 -0.515625 0.640625 -0.921875l1.390625 -1.953125l1.6875 0l-2.875 3.90625l3.09375 4.390625l-1.734375 0l-1.703125 -2.578125l-0.453125 -0.703125l-2.171875 3.28125l-1.703125 0z" fill-rule="nonzero"/>
        <path fill="#000000" fill-opacity="0.0" d="m464.79022 113.805786l91.33856 0l0 42.4252l-91.33856 0z" fill-rule="evenodd"/>
        <path fill="#000000" d="m489.16006 138.16579l2.390625 -11.453125l3.546875 0q0.96875 0 1.4375 0.078125q0.765625 0.125 1.296875 0.46875q0.53125 0.328125 0.8125 0.90625q0.296875 0.5625 0.296875 1.265625q0 0.9375 -0.53125 1.65625q-0.515625 0.71875 -1.578125 1.09375q0.921875 0.3125 1.375 0.921875q0.46875 0.609375 0.46875 1.4375q0 0.9375 -0.546875 1.8125q-0.53125 0.859375 -1.4375 1.34375q-0.890625 0.46875 -1.984375 0.46875l-5.546875 0zm2.90625 -6.5625l2.3125 0q1.671875 0 2.390625 -0.53125q0.734375 -0.53125 0.734375 -1.546875q0 -0.484375 -0.234375 -0.828125q-0.21875 -0.359375 -0.59375 -0.515625q-0.375 -0.171875 -1.421875 -0.171875l-2.4375 0l-0.75 3.59375zm-1.109375 5.265625l2.609375 0q1.046875 0 1.40625 -0.078125q0.71875 -0.125 1.171875 -0.421875q0.453125 -0.296875 0.703125 -0.78125q0.265625 -0.5 0.265625 -1.046875q0 -0.796875 -0.5 -1.21875q-0.5 -0.421875 -1.921875 -0.421875l-2.90625 0l-0.828125 3.96875z" fill-rule="nonzero"/>
        <path fill="#000000" d="m504.63663 138.16579l0 -8.296875l1.25 0l0 1.15625q0.390625 -0.609375 1.03125 -0.96875q0.65625 -0.375 1.484375 -0.375q0.921875 0 1.515625 0.390625q0.59375 0.375 0.828125 1.0625q0.984375 -1.453125 2.5624695 -1.453125q1.234375 0 1.890625 0.6875q0.671875 0.671875 0.671875 2.09375l0 5.703125l-1.390625 0l0 -5.234375q0 -0.84375 -0.140625 -1.203125q-0.140625 -0.375 -0.5 -0.59375q-0.359375 -0.234375 -0.84375 -0.234375q-0.875 0 -1.4530945 0.578125q-0.578125 0.578125 -0.578125 1.859375l0 4.828125l-1.40625 0l0 -5.390625q0 -0.9375 -0.34375 -1.40625q-0.34375 -0.46875 -1.125 -0.46875q-0.59375 0 -1.09375 0.3125q-0.5 0.3125 -0.734375 0.921875q-0.21875 0.59375 -0.21875 1.71875l0 4.3125l-1.40625 0zm18.734344 -1.03125q-0.78125 0.671875 -1.5 0.953125q-0.71875 0.265625 -1.546875 0.265625q-1.375 0 -2.109375 -0.671875q-0.734375 -0.671875 -0.734375 -1.703125q0 -0.609375 0.28125 -1.109375q0.28125 -0.515625 0.71875 -0.8125q0.453125 -0.3125 1.015625 -0.46875q0.421875 -0.109375 1.25 -0.203125q1.703125 -0.203125 2.515625 -0.484375q0 -0.296875 0 -0.375q0 -0.859375 -0.390625 -1.203125q-0.546875 -0.484375 -1.609375 -0.484375q-0.984375 0 -1.46875 0.359375q-0.46875 0.34375 -0.6875 1.21875l-1.375 -0.1875q0.1875 -0.875 0.609375 -1.421875q0.4375 -0.546875 1.25 -0.828125q0.8125 -0.296875 1.875 -0.296875q1.0625 0 1.71875 0.25q0.671875 0.25 0.984375 0.625q0.3125 0.375 0.4375 0.953125q0.078125 0.359375 0.078125 1.296875l0 1.875q0 1.96875 0.078125 2.484375q0.09375 0.515625 0.359375 1.0l-1.46875 0q-0.21875 -0.4375 -0.28125 -1.03125zm-0.109375 -3.140625q-0.765625 0.3125 -2.296875 0.53125q-0.875 0.125 -1.234375 0.28125q-0.359375 0.15625 -0.5625 0.46875q-0.1875 0.296875 -0.1875 0.65625q0 0.5625 0.421875 0.9375q0.4375 0.375 1.25 0.375q0.8125 0 1.4375 -0.34375q0.640625 -0.359375 0.9375 -0.984375q0.234375 -0.46875 0.234375 -1.40625l0 -0.515625zm6.6640625 2.90625l0.203125 1.25q-0.59375 0.125 -1.0625 0.125q-0.765625 0 -1.1875 -0.234375q-0.421875 -0.25 -0.59375 -0.640625q-0.171875 -0.40625 -0.171875 -1.671875l0 -4.765625l-1.03125 0l0 -1.09375l1.03125 0l0 -2.0625l1.40625 -0.84375l0 2.90625l1.40625 0l0 1.09375l-1.40625 0l0 4.84375q0 0.609375 0.0625 0.78125q0.078125 0.171875 0.25 0.28125q0.171875 0.09375 0.484375 0.09375q0.234375 0 0.609375 -0.0625zm1.3671875 1.265625l0 -8.296875l1.265625 0l0 1.25q0.484375 -0.875 0.890625 -1.15625q0.40625 -0.28125 0.90625 -0.28125q0.703125 0 1.4375 0.453125l-0.484375 1.296875q-0.515625 -0.296875 -1.03125 -0.296875q-0.453125 0 -0.828125 0.28125q-0.359375 0.265625 -0.515625 0.765625q-0.234375 0.75 -0.234375 1.640625l0 4.34375l-1.40625 0zm5.34375 -9.84375l0 -1.609375l1.40625 0l0 1.609375l-1.40625 0zm0 9.84375l0 -8.296875l1.40625 0l0 8.296875l-1.40625 0zm2.6171875 0l3.03125 -4.3125l-2.8125 -3.984375l1.765625 0l1.265625 1.9375q0.359375 0.5625 0.578125 0.9375q0.34375 -0.515625 0.640625 -0.921875l1.390625 -1.953125l1.6875 0l-2.875 3.90625l3.09375 4.390625l-1.734375 0l-1.703125 -2.578125l-0.453125 -0.703125l-2.171875 3.28125l-1.703125 0z" fill-rule="nonzero"/>
        <path fill="#000000" fill-opacity="0.0" d="m464.78882 288.77115l91.33856 0l0 42.4252l-91.33856 0z" fill-rule="evenodd"/>
        <path fill="#000000" d="m497.22897 309.0999l1.515625 0.203125q-0.71875 1.984375 -2.09375 3.015625q-1.375 1.015625 -3.09375 1.015625q-2.078125 0 -3.3125 -1.28125q-1.21875 -1.28125 -1.21875 -3.65625q0 -3.09375 1.859375 -5.109375q1.65625 -1.8125 4.125 -1.8125q1.8125 0 2.9375 0.984375q1.140625 0.96875 1.3125 2.625l-1.421875 0.125q-0.234375 -1.234375 -0.9375 -1.84375q-0.703125 -0.625 -1.828125 -0.625q-2.09375 0 -3.390625 1.875q-1.125 1.609375 -1.125 3.8125q0 1.765625 0.859375 2.703125q0.875 0.921875 2.265625 0.921875q1.1875 0 2.140625 -0.765625q0.96875 -0.78125 1.40625 -2.1875z" fill-rule="nonzero"/>
        <path fill="#000000" d="m504.63522 313.13116l0 -8.296875l1.25 0l0 1.15625q0.390625 -0.609375 1.03125 -0.96875q0.65625 -0.375 1.484375 -0.375q0.921875 0 1.515625 0.390625q0.59375 0.375 0.828125 1.0625q0.984375 -1.453125 2.5624695 -1.453125q1.234375 0 1.890625 0.6875q0.671875 0.671875 0.671875 2.09375l0 5.703125l-1.390625 0l0 -5.234375q0 -0.84375 -0.140625 -1.203125q-0.140625 -0.375 -0.5 -0.59375q-0.359375 -0.234375 -0.84375 -0.234375q-0.875 0 -1.4530945 0.578125q-0.578125 0.578125 -0.578125 1.859375l0 4.828125l-1.40625 0l0 -5.390625q0 -0.9375 -0.34375 -1.40625q-0.34375 -0.46875 -1.125 -0.46875q-0.59375 0 -1.09375 0.3125q-0.5 0.3125 -0.734375 0.921875q-0.21875 0.59375 -0.21875 1.71875l0 4.3125l-1.40625 0zm18.734344 -1.03125q-0.78125 0.671875 -1.5 0.953125q-0.71875 0.265625 -1.546875 0.265625q-1.375 0 -2.109375 -0.671875q-0.734375 -0.671875 -0.734375 -1.703125q0 -0.609375 0.28125 -1.109375q0.28125 -0.515625 0.71875 -0.8125q0.453125 -0.3125 1.015625 -0.46875q0.421875 -0.109375 1.25 -0.203125q1.703125 -0.203125 2.515625 -0.484375q0 -0.296875 0 -0.375q0 -0.859375 -0.390625 -1.203125q-0.546875 -0.484375 -1.609375 -0.484375q-0.984375 0 -1.46875 0.359375q-0.46875 0.34375 -0.6875 1.21875l-1.375 -0.1875q0.1875 -0.875 0.609375 -1.421875q0.4375 -0.546875 1.25 -0.828125q0.8125 -0.296875 1.875 -0.296875q1.0625 0 1.71875 0.25q0.671875 0.25 0.984375 0.625q0.3125 0.375 0.4375 0.953125q0.078125 0.359375 0.078125 1.296875l0 1.875q0 1.96875 0.078125 2.484375q0.09375 0.515625 0.359375 1.0l-1.46875 0q-0.21875 -0.4375 -0.28125 -1.03125zm-0.109375 -3.140625q-0.765625 0.3125 -2.296875 0.53125q-0.875 0.125 -1.234375 0.28125q-0.359375 0.15625 -0.5625 0.46875q-0.1875 0.296875 -0.1875 0.65625q0 0.5625 0.421875 0.9375q0.4375 0.375 1.25 0.375q0.8125 0 1.4375 -0.34375q0.640625 -0.359375 0.9375 -0.984375q0.234375 -0.46875 0.234375 -1.40625l0 -0.515625zm6.6640625 2.90625l0.203125 1.25q-0.59375 0.125 -1.0625 0.125q-0.765625 0 -1.1875 -0.234375q-0.421875 -0.25 -0.59375 -0.640625q-0.171875 -0.40625 -0.171875 -1.671875l0 -4.765625l-1.03125 0l0 -1.09375l1.03125 0l0 -2.0625l1.40625 -0.84375l0 2.90625l1.40625 0l0 1.09375l-1.40625 0l0 4.84375q0 0.609375 0.0625 0.78125q0.078125 0.171875 0.25 0.28125q0.171875 0.09375 0.484375 0.09375q0.234375 0 0.609375 -0.0625zm1.3671875 1.265625l0 -8.296875l1.265625 0l0 1.25q0.484375 -0.875 0.890625 -1.15625q0.40625 -0.28125 0.90625 -0.28125q0.703125 0 1.4375 0.453125l-0.484375 1.296875q-0.515625 -0.296875 -1.03125 -0.296875q-0.453125 0 -0.828125 0.28125q-0.359375 0.265625 -0.515625 0.765625q-0.234375 0.75 -0.234375 1.640625l0 4.34375l-1.40625 0zm5.34375 -9.84375l0 -1.609375l1.40625 0l0 1.609375l-1.40625 0zm0 9.84375l0 -8.296875l1.40625 0l0 8.296875l-1.40625 0zm2.6171875 0l3.03125 -4.3125l-2.8125 -3.984375l1.765625 0l1.265625 1.9375q0.359375 0.5625 0.578125 0.9375q0.34375 -0.515625 0.640625 -0.921875l1.390625 -1.953125l1.6875 0l-2.875 3.90625l3.09375 4.390625l-1.734375 0l-1.703125 -2.578125l-0.453125 -0.703125l-2.171875 3.28125l-1.703125 0z" fill-rule="nonzero"/>
        <path fill="#000000" fill-opacity="0.0" d="m466.83627 350.92026l91.33859 0l0 42.4252l-91.33859 0z" fill-rule="evenodd"/>
        <path fill="#000000" d="m476.80502 372.72025l0 -9.546875l3.59375 0q1.09375 0 1.75 0.296875q0.65625 0.28125 1.03125 0.890625q0.375 0.609375 0.375 1.265625q0 0.609375 -0.34375 1.15625q-0.328125 0.53125 -0.984375 0.859375q0.859375 0.25 1.328125 0.875q0.46875 0.609375 0.46875 1.4375q0 0.671875 -0.296875 1.25q-0.28125 0.578125 -0.703125 0.890625q-0.40625 0.3125 -1.03125 0.46875q-0.625 0.15625 -1.546875 0.15625l-3.640625 0zm1.265625 -5.53125l2.0625 0q0.84375 0 1.203125 -0.109375q0.484375 -0.140625 0.71875 -0.46875q0.25 -0.34375 0.25 -0.84375q0 -0.46875 -0.234375 -0.828125q-0.21875 -0.359375 -0.640625 -0.5q-0.421875 -0.140625 -1.453125 -0.140625l-1.90625 0l0 2.890625zm0 4.40625l2.375 0q0.609375 0 0.859375 -0.046875q0.4375 -0.078125 0.734375 -0.25q0.296875 -0.1875 0.484375 -0.53125q0.1875 -0.359375 0.1875 -0.8125q0 -0.53125 -0.28125 -0.921875q-0.265625 -0.40625 -0.75 -0.5625q-0.484375 -0.15625 -1.40625 -0.15625l-2.203125 0l0 3.28125zm7.51474 1.125l0 -9.546875l1.171875 0l0 9.546875l-1.171875 0zm2.539215 -3.453125q0 -1.921875 1.078125 -2.84375q0.890625 -0.765625 2.171875 -0.765625q1.421875 0 2.328125 0.9375q0.90625 0.921875 0.90625 2.578125q0 1.328125 -0.40625 2.09375q-0.390625 0.765625 -1.15625 1.1875q-0.765625 0.421875 -1.671875 0.421875q-1.453125 0 -2.359375 -0.921875q-0.890625 -0.9375 -0.890625 -2.6875zm1.203125 0q0 1.328125 0.578125 1.984375q0.59375 0.65625 1.46875 0.65625q0.875 0 1.453125 -0.65625q0.578125 -0.671875 0.578125 -2.03125q0 -1.28125 -0.59375 -1.9375q-0.578125 -0.65625 -1.4375 -0.65625q-0.875 0 -1.46875 0.65625q-0.578125 0.65625 -0.578125 1.984375zm11.162476 0.921875l1.15625 0.15625q-0.1875 1.1875 -0.96875 1.859375q-0.78125 0.671875 -1.921875 0.671875q-1.40625 0 -2.28125 -0.921875q-0.859375 -0.9375 -0.859375 -2.65625q0 -1.125 0.375 -1.96875q0.375 -0.84375 1.125 -1.25q0.765625 -0.421875 1.65625 -0.421875q1.125 0 1.84375 0.578125q0.71875 0.5625 0.921875 1.609375l-1.140625 0.171875q-0.171875 -0.703125 -0.59375 -1.046875q-0.40625 -0.359375 -0.984375 -0.359375q-0.890625 0 -1.453125 0.640625q-0.546875 0.640625 -0.546875 2.0q0 1.40625 0.53125 2.03125q0.546875 0.625 1.40625 0.625q0.6875 0 1.140625 -0.421875q0.46875 -0.421875 0.59375 -1.296875zm2.1640625 2.53125l0 -9.546875l1.171875 0l0 5.453125l2.765625 -2.8125l1.515625 0l-2.640625 2.5625l2.90625 4.34375l-1.4375 0l-2.28125 -3.53125l-0.828125 0.796875l0 2.734375l-1.171875 0z" fill-rule="nonzero"/>
        <path fill="#000000" d="m508.72458 377.72025l0.953125 -4.609375l0.78125 0l-0.15625 0.765625q0.4375 -0.484375 0.78125 -0.671875q0.34375 -0.1875 0.75 -0.1875q0.42190552 0 0.7031555 0.234375q0.296875 0.21875 0.390625 0.625q0.359375 -0.4375 0.734375 -0.640625q0.390625 -0.21875 0.828125 -0.21875q0.578125 0 0.859375 0.28125q0.296875 0.265625 0.296875 0.75q0 0.21875 -0.109375 0.703125l-0.625 2.96875l-0.78125 0l0.640625 -3.046875q0.078125 -0.375 0.078125 -0.53125q0 -0.21875 -0.140625 -0.34375q-0.140625 -0.140625 -0.40625 -0.140625q-0.34375 0 -0.71875 0.21875q-0.359375 0.203125 -0.5625 0.546875q-0.203125 0.34375 -0.34375 1.0625l-0.46875 2.234375l-0.7969055 0l0.6562805 -3.109375q0.0625 -0.3125 0.0625 -0.453125q0 -0.21875 -0.14065552 -0.359375q-0.140625 -0.140625 -0.359375 -0.140625q-0.328125 0 -0.703125 0.21875q-0.359375 0.203125 -0.59375 0.59375q-0.234375 0.375 -0.375 1.078125l-0.453125 2.171875l-0.78125 0zm7.580353 0l0.1875 -0.890625l0.890625 0l-0.15625 0.78125q-0.15625 0.6875 -0.46875 1.015625q-0.3125 0.328125 -0.71875 0.375l0.0625 -0.34375q0.515625 -0.140625 0.6875 -0.9375l-0.484375 0zm2.2781982 0l0.953125 -4.609375l0.71875 0l-0.171875 0.8125q0.46875 -0.46875 0.859375 -0.6875q0.40625 -0.21875 0.828125 -0.21875q0.5625 0 0.875 0.3125q0.328125 0.296875 0.328125 0.796875q0 0.25 -0.109375 0.8125l-0.59375 2.78125l-0.78125 0l0.609375 -2.921875q0.09375 -0.421875 0.09375 -0.625q0 -0.234375 -0.15625 -0.375q-0.15625 -0.140625 -0.453125 -0.140625q-0.609375 0 -1.078125 0.4375q-0.46875 0.4375 -0.6875 1.484375l-0.453125 2.140625l-0.78125 0z" fill-rule="nonzero"/>
        <path fill="#000000" fill-opacity="0.0" d="m473.5219 389.52756l48.0 0l0 28.944885l-48.0 0z" fill-rule="evenodd"/>
        <path fill="#000000" d="m486.74124 408.76755l1.59375 -7.625l1.25 0l0.765625 4.9375q0.15625 0.96875 0.203125 1.875q0.3125 -0.78125 1.0625 -2.09375l2.671875 -4.71875l1.28125 0l-1.59375 7.625l-1.0 0l0.796875 -3.703125q0.265625 -1.296875 0.78125 -2.890625q-0.328125 0.75 -0.8125 1.609375l-2.84375 4.984375l-0.984375 0l-0.765625 -4.890625q-0.09375 -0.671875 -0.140625 -1.5625q-0.125 1.0 -0.25 1.59375l-1.015625 4.859375l-1.0 0zm10.9704895 -0.765625l-0.15625 0.765625q-0.34375 0.09375 -0.65625 0.09375q-0.5625 0 -0.90625 -0.28125q-0.25 -0.203125 -0.25 -0.5625q0 -0.1875 0.140625 -0.84375l0.671875 -3.203125l-0.75 0l0.15625 -0.734375l0.75 0l0.28125 -1.359375l1.078125 -0.640625l-0.421875 2.0l0.921875 0l-0.15625 0.734375l-0.921875 0l-0.640625 3.046875q-0.109375 0.59375 -0.109375 0.703125q0 0.171875 0.09375 0.265625q0.09375 0.078125 0.3125 0.078125q0.3125 0 0.5625 -0.0625zm2.0856323 -5.796875l0.234375 -1.0625l0.921875 0l-0.21875 1.0625l-0.9375 0zm-1.375 6.5625l1.15625 -5.53125l0.953125 0l-1.15625 5.53125l-0.953125 0zm2.3362427 0l1.59375 -7.625l0.9375 0l-1.59375 7.625l-0.9375 0zm6.492462 -1.875l0.921875 0.09375q-0.203125 0.671875 -0.921875 1.296875q-0.703125 0.609375 -1.6875 0.609375q-0.609375 0 -1.125 -0.28125q-0.5 -0.28125 -0.78125 -0.828125q-0.265625 -0.546875 -0.265625 -1.234375q0 -0.90625 0.421875 -1.75q0.421875 -0.859375 1.078125 -1.265625q0.671875 -0.421875 1.453125 -0.421875q0.984375 0 1.578125 0.625q0.59375 0.609375 0.59375 1.671875q0 0.40625 -0.078125 0.828125l-4.0625 0q-0.03125 0.15625 -0.03125 0.296875q0 0.765625 0.359375 1.1875q0.359375 0.40625 0.875 0.40625q0.484375 0 0.953125 -0.3125q0.46875 -0.328125 0.71875 -0.921875zm-2.734375 -1.375l3.109375 0q0 -0.140625 0 -0.203125q0 -0.703125 -0.359375 -1.078125q-0.34375 -0.390625 -0.90625 -0.390625q-0.609375 0 -1.109375 0.421875q-0.484375 0.421875 -0.734375 1.25z" fill-rule="nonzero"/>
        <path fill="#000000" fill-opacity="0.0" d="m473.5219 173.52756l48.0 0l0 28.944885l-48.0 0z" fill-rule="evenodd"/>
        <path fill="#000000" d="m487.6258 192.76756l1.59375 -7.625l1.015625 0l-0.75 3.671875l4.140625 -3.671875l1.4375 0l-3.546875 3.109375l2.59375 4.515625l-1.140625 0l-2.203125 -3.859375l-1.59375 1.375l-0.515625 2.484375l-1.03125 0zm9.2013855 -0.765625l-0.15625 0.765625q-0.34375 0.09375 -0.65625 0.09375q-0.5625 0 -0.90625 -0.28125q-0.25 -0.203125 -0.25 -0.5625q0 -0.1875 0.140625 -0.84375l0.671875 -3.203125l-0.75 0l0.15625 -0.734375l0.75 0l0.28125 -1.359375l1.078125 -0.640625l-0.421875 2.0l0.921875 0l-0.15625 0.734375l-0.921875 0l-0.640625 3.046875q-0.109375 0.59375 -0.109375 0.703125q0 0.171875 0.09375 0.265625q0.09375 0.078125 0.3125 0.078125q0.3125 0 0.5625 -0.0625zm2.0856323 -5.796875l0.234375 -1.0625l0.921875 0l-0.21875 1.0625l-0.9375 0zm-1.375 6.5625l1.15625 -5.53125l0.953125 0l-1.15625 5.53125l-0.953125 0zm2.3362427 0l1.59375 -7.625l0.9375 0l-1.59375 7.625l-0.9375 0zm6.492462 -1.875l0.921875 0.09375q-0.203125 0.671875 -0.921875 1.296875q-0.703125 0.609375 -1.6875 0.609375q-0.609375 0 -1.125 -0.28125q-0.5 -0.28125 -0.78125 -0.828125q-0.265625 -0.546875 -0.265625 -1.234375q0 -0.90625 0.421875 -1.75q0.421875 -0.859375 1.078125 -1.265625q0.671875 -0.421875 1.453125 -0.421875q0.984375 0 1.578125 0.625q0.59375 0.609375 0.59375 1.671875q0 0.40625 -0.078125 0.828125l-4.0625 0q-0.03125 0.15625 -0.03125 0.296875q0 0.765625 0.359375 1.1875q0.359375 0.40625 0.875 0.40625q0.484375 0 0.953125 -0.3125q0.46875 -0.328125 0.71875 -0.921875zm-2.734375 -1.375l3.109375 0q0 -0.140625 0 -0.203125q0 -0.703125 -0.359375 -1.078125q-0.34375 -0.390625 -0.90625 -0.390625q-0.609375 0 -1.109375 0.421875q-0.484375 0.421875 -0.734375 1.25z" fill-rule="nonzero"/>
        <path fill="#000000" fill-opacity="0.0" d="m243.9996 428.4882l48.0 0l0 28.944885l-48.0 0z" fill-rule="evenodd"/>
        <path fill="#000000" d="m258.1035 447.72818l1.59375 -7.625l1.015625 0l-0.75 3.671875l4.140625 -3.671875l1.4375 0l-3.546875 3.109375l2.59375 4.515625l-1.140625 0l-2.203125 -3.859375l-1.59375 1.375l-0.515625 2.484375l-1.03125 0zm9.2013855 -0.765625l-0.15625 0.765625q-0.34375 0.09375 -0.65625 0.09375q-0.5625 0 -0.90625 -0.28125q-0.25 -0.203125 -0.25 -0.5625q0 -0.1875 0.140625 -0.84375l0.671875 -3.203125l-0.75 0l0.15625 -0.734375l0.75 0l0.28125 -1.359375l1.078125 -0.640625l-0.421875 2.0l0.921875 0l-0.15625 0.734375l-0.921875 0l-0.640625 3.046875q-0.109375 0.59375 -0.109375 0.703125q0 0.171875 0.09375 0.265625q0.09375 0.078125 0.3125 0.078125q0.3125 0 0.5625 -0.0625zm2.0856323 -5.796875l0.234375 -1.0625l0.921875 0l-0.21875 1.0625l-0.9375 0zm-1.375 6.5625l1.15625 -5.53125l0.953125 0l-1.15625 5.53125l-0.953125 0zm2.3362427 0l1.59375 -7.625l0.9375 0l-1.59375 7.625l-0.9375 0zm6.492462 -1.875l0.921875 0.09375q-0.203125 0.671875 -0.921875 1.296875q-0.703125 0.609375 -1.6875 0.609375q-0.609375 0 -1.125 -0.28125q-0.5 -0.28125 -0.78125 -0.828125q-0.265625 -0.546875 -0.265625 -1.234375q0 -0.90625 0.421875 -1.75q0.421875 -0.859375 1.078125 -1.265625q0.671875 -0.421875 1.453125 -0.421875q0.984375 0 1.578125 0.625q0.59375 0.609375 0.59375 1.671875q0 0.40625 -0.078125 0.828125l-4.0625 0q-0.03125 0.15625 -0.03125 0.296875q0 0.765625 0.359375 1.1875q0.359375 0.40625 0.875 0.40625q0.484375 0 0.953125 -0.3125q0.46875 -0.328125 0.71875 -0.921875zm-2.734375 -1.375l3.109375 0q0 -0.140625 0 -0.203125q0 -0.703125 -0.359375 -1.078125q-0.34375 -0.390625 -0.90625 -0.390625q-0.609375 0 -1.109375 0.421875q-0.484375 0.421875 -0.734375 1.25z" fill-rule="nonzero"/>
        <path fill="#000000" fill-opacity="0.0" d="m423.9996 428.4882l48.0 0l0 28.944885l-48.0 0z" fill-rule="evenodd"/>
        <path fill="#000000" d="m437.85638 447.72818l1.609375 -7.625l0.984375 0l1.28125 2.859375q0.59375 1.3125 0.9375 2.203125q0.1875 0.515625 0.453125 1.40625q0.140625 -0.96875 0.359375 -1.984375l0.9375 -4.484375l0.984375 0l-1.59375 7.625l-1.0 0l-1.90625 -4.40625q-0.5 -1.171875 -0.78125 -2.0625q-0.078125 0.75 -0.296875 1.828125l-0.96875 4.640625l-1.0 0zm9.742462 -0.765625l-0.15625 0.765625q-0.34375 0.09375 -0.65625 0.09375q-0.5625 0 -0.90625 -0.28125q-0.25 -0.203125 -0.25 -0.5625q0 -0.1875 0.140625 -0.84375l0.671875 -3.203125l-0.75 0l0.15625 -0.734375l0.75 0l0.28125 -1.359375l1.078125 -0.640625l-0.421875 2.0l0.921875 0l-0.15625 0.734375l-0.921875 0l-0.640625 3.046875q-0.109375 0.59375 -0.109375 0.703125q0 0.171875 0.09375 0.265625q0.09375 0.078125 0.3125 0.078125q0.3125 0 0.5625 -0.0625zm2.0856628 -5.796875l0.234375 -1.0625l0.921875 0l-0.21875 1.0625l-0.9375 0zm-1.375 6.5625l1.15625 -5.53125l0.953125 0l-1.15625 5.53125l-0.953125 0zm2.3362122 0l1.59375 -7.625l0.9375 0l-1.59375 7.625l-0.9375 0zm6.4924927 -1.875l0.921875 0.09375q-0.203125 0.671875 -0.921875 1.296875q-0.703125 0.609375 -1.6875 0.609375q-0.609375 0 -1.125 -0.28125q-0.5 -0.28125 -0.78125 -0.828125q-0.265625 -0.546875 -0.265625 -1.234375q0 -0.90625 0.421875 -1.75q0.421875 -0.859375 1.078125 -1.265625q0.671875 -0.421875 1.453125 -0.421875q0.984375 0 1.578125 0.625q0.59375 0.609375 0.59375 1.671875q0 0.40625 -0.078125 0.828125l-4.0625 0q-0.03125 0.15625 -0.03125 0.296875q0 0.765625 0.359375 1.1875q0.359375 0.40625 0.875 0.40625q0.484375 0 0.953125 -0.3125q0.46875 -0.328125 0.71875 -0.921875zm-2.734375 -1.375l3.109375 0q0 -0.140625 0 -0.203125q0 -0.703125 -0.359375 -1.078125q-0.34375 -0.390625 -0.90625 -0.390625q-0.609375 0 -1.109375 0.421875q-0.484375 0.421875 -0.734375 1.25z" fill-rule="nonzero"/>
        <path fill="#000000" fill-opacity="0.0" d="m281.5219 389.52756l48.0 0l0 28.944885l-48.0 0z" fill-rule="evenodd"/>
        <path fill="#000000" d="m294.74124 408.76755l1.59375 -7.625l1.25 0l0.765625 4.9375q0.15625 0.96875 0.203125 1.875q0.3125 -0.78125 1.0625 -2.09375l2.671875 -4.71875l1.28125 0l-1.59375 7.625l-1.0 0l0.796875 -3.703125q0.265625 -1.296875 0.78125 -2.890625q-0.328125 0.75 -0.8125 1.609375l-2.84375 4.984375l-0.984375 0l-0.765625 -4.890625q-0.09375 -0.671875 -0.140625 -1.5625q-0.125 1.0 -0.25 1.59375l-1.015625 4.859375l-1.0 0zm10.9704895 -0.765625l-0.15625 0.765625q-0.34375 0.09375 -0.65625 0.09375q-0.5625 0 -0.90625 -0.28125q-0.25 -0.203125 -0.25 -0.5625q0 -0.1875 0.140625 -0.84375l0.671875 -3.203125l-0.75 0l0.15625 -0.734375l0.75 0l0.28125 -1.359375l1.078125 -0.640625l-0.421875 2.0l0.921875 0l-0.15625 0.734375l-0.921875 0l-0.640625 3.046875q-0.109375 0.59375 -0.109375 0.703125q0 0.171875 0.09375 0.265625q0.09375 0.078125 0.3125 0.078125q0.3125 0 0.5625 -0.0625zm2.0856323 -5.796875l0.234375 -1.0625l0.921875 0l-0.21875 1.0625l-0.9375 0zm-1.375 6.5625l1.15625 -5.53125l0.953125 0l-1.15625 5.53125l-0.953125 0zm2.3362427 0l1.59375 -7.625l0.9375 0l-1.59375 7.625l-0.9375 0zm6.492462 -1.875l0.921875 0.09375q-0.203125 0.671875 -0.921875 1.296875q-0.703125 0.609375 -1.6875 0.609375q-0.609375 0 -1.125 -0.28125q-0.5 -0.28125 -0.78125 -0.828125q-0.265625 -0.546875 -0.265625 -1.234375q0 -0.90625 0.421875 -1.75q0.421875 -0.859375 1.078125 -1.265625q0.671875 -0.421875 1.453125 -0.421875q0.984375 0 1.578125 0.625q0.59375 0.609375 0.59375 1.671875q0 0.40625 -0.078125 0.828125l-4.0625 0q-0.03125 0.15625 -0.03125 0.296875q0 0.765625 0.359375 1.1875q0.359375 0.40625 0.875 0.40625q0.484375 0 0.953125 -0.3125q0.46875 -0.328125 0.71875 -0.921875zm-2.734375 -1.375l3.109375 0q0 -0.140625 0 -0.203125q0 -0.703125 -0.359375 -1.078125q-0.34375 -0.390625 -0.90625 -0.390625q-0.609375 0 -1.109375 0.421875q-0.484375 0.421875 -0.734375 1.25z" fill-rule="nonzero"/>
        <path fill="#000000" fill-opacity="0.0" d="m423.9996 204.48819l48.0 0l0 28.944885l-48.0 0z" fill-rule="evenodd"/>
        <path fill="#000000" d="m437.85638 223.7282l1.609375 -7.625l0.984375 0l1.28125 2.859375q0.59375 1.3125 0.9375 2.203125q0.1875 0.515625 0.453125 1.40625q0.140625 -0.96875 0.359375 -1.984375l0.9375 -4.484375l0.984375 0l-1.59375 7.625l-1.0 0l-1.90625 -4.40625q-0.5 -1.171875 -0.78125 -2.0625q-0.078125 0.75 -0.296875 1.828125l-0.96875 4.640625l-1.0 0zm9.742462 -0.765625l-0.15625 0.765625q-0.34375 0.09375 -0.65625 0.09375q-0.5625 0 -0.90625 -0.28125q-0.25 -0.203125 -0.25 -0.5625q0 -0.1875 0.140625 -0.84375l0.671875 -3.203125l-0.75 0l0.15625 -0.734375l0.75 0l0.28125 -1.359375l1.078125 -0.640625l-0.421875 2.0l0.921875 0l-0.15625 0.734375l-0.921875 0l-0.640625 3.046875q-0.109375 0.59375 -0.109375 0.703125q0 0.171875 0.09375 0.265625q0.09375 0.078125 0.3125 0.078125q0.3125 0 0.5625 -0.0625zm2.0856628 -5.796875l0.234375 -1.0625l0.921875 0l-0.21875 1.0625l-0.9375 0zm-1.375 6.5625l1.15625 -5.53125l0.953125 0l-1.15625 5.53125l-0.953125 0zm2.3362122 0l1.59375 -7.625l0.9375 0l-1.59375 7.625l-0.9375 0zm6.4924927 -1.875l0.921875 0.09375q-0.203125 0.671875 -0.921875 1.296875q-0.703125 0.609375 -1.6875 0.609375q-0.609375 0 -1.125 -0.28125q-0.5 -0.28125 -0.78125 -0.828125q-0.265625 -0.546875 -0.265625 -1.234375q0 -0.90625 0.421875 -1.75q0.421875 -0.859375 1.078125 -1.265625q0.671875 -0.421875 1.453125 -0.421875q0.984375 0 1.578125 0.625q0.59375 0.609375 0.59375 1.671875q0 0.40625 -0.078125 0.828125l-4.0625 0q-0.03125 0.15625 -0.03125 0.296875q0 0.765625 0.359375 1.1875q0.359375 0.40625 0.875 0.40625q0.484375 0 0.953125 -0.3125q0.46875 -0.328125 0.71875 -0.921875zm-2.734375 -1.375l3.109375 0q0 -0.140625 0 -0.203125q0 -0.703125 -0.359375 -1.078125q-0.34375 -0.390625 -0.90625 -0.390625q-0.609375 0 -1.109375 0.421875q-0.484375 0.421875 -0.734375 1.25z" fill-rule="nonzero"/>
        <path fill="#000000" fill-opacity="0.0" d="m368.0 280.0c-2.209137 0 -4.0 -1.790863 -4.0 -4.0l0 -72.0c0 -2.209137 -1.790863 -4.0 -4.0 -4.0l0 0c2.209137 0 4.0 -1.790863 4.0 -4.0l0 -72.0l0 0c0 -2.209137 1.790863 -4.0 4.0 -4.0z" fill-rule="evenodd"/>
        <path fill="#000000" fill-opacity="0.0" d="m368.0 280.0c-2.209137 0 -4.0 -1.790863 -4.0 -4.0l0 -72.0c0 -2.209137 -1.790863 -4.0 -4.0 -4.0l0 0c2.209137 0 4.0 -1.790863 4.0 -4.0l0 -72.0l0 0c0 -2.209137 1.790863 -4.0 4.0 -4.0" fill-rule="evenodd"/>
        <path stroke="#666666" stroke-width="1.0" stroke-linejoin="round" stroke-linecap="butt" d="m368.0 280.0c-2.209137 0 -4.0 -1.790863 -4.0 -4.0l0 -72.0c0 -2.209137 -1.790863 -4.0 -4.0 -4.0l0 0c2.209137 0 4.0 -1.790863 4.0 -4.0l0 -72.0l0 0c0 -2.209137 1.790863 -4.0 4.0 -4.0" fill-rule="evenodd"/>
        <path fill="#000000" fill-opacity="0.0" d="m192.0 424.0c-2.209137 0 -4.0 -1.790863 -4.0 -4.0l0 -56.0c0 -2.209137 -1.790863 -4.0 -4.0 -4.0l0 0c2.209137 0 4.0 -1.790863 4.0 -4.0l0 -56.0l0 0c0 -2.209137 1.790863 -4.0 4.0 -4.0z" fill-rule="evenodd"/>
        <path fill="#000000" fill-opacity="0.0" d="m192.0 424.0c-2.209137 0 -4.0 -1.790863 -4.0 -4.0l0 -56.0c0 -2.209137 -1.790863 -4.0 -4.0 -4.0l0 0c2.209137 0 4.0 -1.790863 4.0 -4.0l0 -56.0l0 0c0 -2.209137 1.790863 -4.0 4.0 -4.0" fill-rule="evenodd"/>
        <path stroke="#666666" stroke-width="1.0" stroke-linejoin="round" stroke-linecap="butt" d="m192.0 424.0c-2.209137 0 -4.0 -1.790863 -4.0 -4.0l0 -56.0c0 -2.209137 -1.790863 -4.0 -4.0 -4.0l0 0c2.209137 0 4.0 -1.790863 4.0 -4.0l0 -56.0l0 0c0 -2.209137 1.790863 -4.0 4.0 -4.0" fill-rule="evenodd"/>
        <path fill="#000000" fill-opacity="0.0" d="m200.0 288.0c0 -2.209137 1.790863 -4.0 4.0 -4.0l72.0 0c2.209137 0 4.0 -1.790863 4.0 -4.0l0 0c0 2.209137 1.790863 4.0 4.0 4.0l72.0 0l0 0c2.209137 0 4.0 1.790863 4.0 4.0z" fill-rule="evenodd"/>
        <path fill="#000000" fill-opacity="0.0" d="m200.0 288.0c0 -2.209137 1.790863 -4.0 4.0 -4.0l72.0 0c2.209137 0 4.0 -1.790863 4.0 -4.0l0 0c0 2.209137 1.790863 4.0 4.0 4.0l72.0 0l0 0c2.209137 0 4.0 1.790863 4.0 4.0" fill-rule="evenodd"/>
        <path stroke="#666666" stroke-width="1.0" stroke-linejoin="round" stroke-linecap="butt" d="m200.0 288.0c0 -2.209137 1.790863 -4.0 4.0 -4.0l72.0 0c2.209137 0 4.0 -1.790863 4.0 -4.0l0 0c0 2.209137 1.790863 4.0 4.0 4.0l72.0 0l0 0c2.209137 0 4.0 1.790863 4.0 4.0" fill-rule="evenodd"/>
        <path fill="#000000" fill-opacity="0.0" d="m376.0 112.0c0 -2.209137 1.790863 -4.0 4.0 -4.0l80.0 0c2.209137 0 4.0 -1.790863 4.0 -4.0l0 0c0 2.209137 1.790863 4.0 4.0 4.0l80.0 0l0 0c2.2091675 0 4.0 1.790863 4.0 4.0z" fill-rule="evenodd"/>
        <path fill="#000000" fill-opacity="0.0" d="m376.0 112.0c0 -2.209137 1.790863 -4.0 4.0 -4.0l80.0 0c2.209137 0 4.0 -1.790863 4.0 -4.0l0 0c0 2.209137 1.790863 4.0 4.0 4.0l80.0 0l0 0c2.2091675 0 4.0 1.790863 4.0 4.0" fill-rule="evenodd"/>
        <path stroke="#666666" stroke-width="1.0" stroke-linejoin="round" stroke-linecap="butt" d="m376.0 112.0c0 -2.209137 1.790863 -4.0 4.0 -4.0l80.0 0c2.209137 0 4.0 -1.790863 4.0 -4.0l0 0c0 2.209137 1.790863 4.0 4.0 4.0l80.0 0l0 0c2.2091675 0 4.0 1.790863 4.0 4.0" fill-rule="evenodd"/>
        <path fill="#000000" fill-opacity="0.0" d="m260.0 247.39754l40.0 0l0 36.94487l-40.0 0z" fill-rule="evenodd"/>
        <path fill="#666666" d="m275.83594 271.75754l0 -11.453125l1.515625 0l0 5.671875l5.6875 -5.671875l2.0625 0l-4.8125 4.640625l5.015625 6.8125l-2.0 0l-4.078125 -5.796875l-1.875 1.828125l0 3.96875l-1.515625 0z" fill-rule="nonzero"/>
        <path fill="#000000" fill-opacity="0.0" d="m324.13123 181.52856l40.0 0l0 36.944885l-40.0 0z" fill-rule="evenodd"/>
        <path fill="#666666" d="m339.96716 205.88857l0 -11.453125l1.515625 0l0 5.671875l5.6875 -5.671875l2.0625 0l-4.8125 4.640625l5.015625 6.8125l-2.0 0l-4.078125 -5.796875l-1.875 1.828125l0 3.96875l-1.515625 0z" fill-rule="nonzero"/>
        <path fill="#000000" fill-opacity="0.0" d="m444.0 67.055115l40.0 0l0 36.944885l-40.0 0z" fill-rule="evenodd"/>
        <path fill="#666666" d="m459.4414 91.415115l0 -11.453125l1.5625 0l6.015625 8.984375l0 -8.984375l1.453125 0l0 11.453125l-1.5625 0l-6.015625 -9.0l0 9.0l-1.453125 0z" fill-rule="nonzero"/>
        <path fill="#000000" fill-opacity="0.0" d="m147.86998 341.52695l40.0 0l0 36.944885l-40.0 0z" fill-rule="evenodd"/>
        <path fill="#666666" d="m162.39342 365.88696l0 -11.453125l2.28125 0l2.71875 8.109375q0.375 1.125 0.546875 1.6875q0.1875 -0.625 0.609375 -1.828125l2.734375 -7.96875l2.046875 0l0 11.453125l-1.46875 0l0 -9.59375l-3.328125 9.59375l-1.359375 0l-3.3125 -9.75l0 9.75l-1.46875 0z" fill-rule="nonzero"/>
      </g>
    </g>
  </g>
  <g/>
</svg>
