<?xml version="1.0" encoding="UTF-8" standalone="no"?>
<svg
   width="203.97946"
   height="38.696289"
   xml:space="preserve"
   overflow="hidden"
   version="1.1"
   id="svg22"
   xmlns="http://www.w3.org/2000/svg"
   xmlns:svg="http://www.w3.org/2000/svg"><defs
     id="defs1"><clipPath
       id="clip0"><rect
         x="345"
         y="316"
         width="1147"
         height="634"
         id="rect1" /></clipPath></defs><g
     clip-path="url(#clip0)"
     transform="translate(-816.30185,-808.01172)"
     id="g22"><path
       d="M 654,342.667 C 654,327.939 665.939,316 680.667,316 h 33.666 C 729.061,316 741,327.939 741,342.667 V 809.333 C 741,824.061 729.061,836 714.333,836 H 680.667 C 665.939,836 654,824.061 654,809.333 Z"
       fill="#92d050"
       fill-rule="evenodd"
       id="path1" /><text
       fill="#ffffff"
       font-family="'DejaVu Sans Mono', 'DejaVu Sans Mono_MSFontService', sans-serif"
       font-weight="700"
       font-size="55px"
       transform="translate(680.905,497)"
       id="text1">f</text><text
       fill="#ffffff"
       font-family="'DejaVu Sans Mono', 'DejaVu Sans Mono_MSFontService', sans-serif"
       font-weight="700"
       font-size="55px"
       transform="translate(680.905,563)"
       id="text2">o</text><text
       fill="#ffffff"
       font-family="'DejaVu Sans Mono', 'DejaVu Sans Mono_MSFontService', sans-serif"
       font-weight="700"
       font-size="55px"
       transform="translate(680.905,629)"
       id="text3">r</text><text
       fill="#ffffff"
       font-family="'DejaVu Sans Mono', 'DejaVu Sans Mono_MSFontService', sans-serif"
       font-weight="700"
       font-size="55px"
       transform="translate(680.905,695)"
       id="text4">k</text><path
       d="m 500.5,567.906 h 111.162 v 17.188 H 500.5 Z m 102.569,-17.187 51.562,25.781 -51.563,25.781 z"
       fill="#d9d9d9"
       id="path4" /><path
       d="m 741.5,412.906 h 312.65 v 17.188 H 741.5 Z m 304.06,-17.187 51.56,25.781 -51.56,25.781 z"
       fill="#b2ecf8"
       id="path5" /><path
       d="M 1097,342.973 C 1097,328.076 1109.08,316 1123.97,316 h 34.06 c 14.89,0 26.97,12.076 26.97,26.973 v 466.053 c 0,14.898 -12.08,26.974 -26.97,26.974 h -34.06 C 1109.08,836 1097,823.924 1097,809.026 Z"
       fill="#92d050"
       fill-rule="evenodd"
       id="path6" /><text
       fill="#ffffff"
       font-family="'DejaVu Sans Mono', 'DejaVu Sans Mono_MSFontService', sans-serif"
       font-weight="700"
       font-size="55px"
       transform="translate(1124.14,497)"
       id="text6">j</text><text
       fill="#ffffff"
       font-family="'DejaVu Sans Mono', 'DejaVu Sans Mono_MSFontService', sans-serif"
       font-weight="700"
       font-size="55px"
       transform="translate(1124.14,563)"
       id="text7">o</text><text
       fill="#ffffff"
       font-family="'DejaVu Sans Mono', 'DejaVu Sans Mono_MSFontService', sans-serif"
       font-weight="700"
       font-size="55px"
       transform="translate(1124.14,629)"
       id="text8">i</text><text
       fill="#ffffff"
       font-family="'DejaVu Sans Mono', 'DejaVu Sans Mono_MSFontService', sans-serif"
       font-weight="700"
       font-size="55px"
       transform="translate(1124.14,695)"
       id="text9">n</text><path
       d="m 1185.5,562.906 111.16,0.001 v 17.187 H 1185.5 Z m 102.57,-17.187 51.56,25.782 -51.56,25.781 z"
       fill="#d9d9d9"
       id="path9" /><path
       d="m 741.5,521.906 h 312.65 v 17.188 H 741.5 Z m 304.06,-17.187 51.56,25.781 -51.56,25.781 z"
       fill="#b2ecf8"
       id="path10" /><path
       d="m 741.5,630.906 h 312.65 v 17.188 H 741.5 Z m 304.06,-17.187 51.56,25.781 -51.56,25.781 z"
       fill="#b2ecf8"
       id="path11" /><path
       d="m 741.5,739.906 h 312.65 v 17.188 H 741.5 Z m 304.06,-17.187 51.56,25.781 -51.56,25.781 z"
       fill="#b2ecf8"
       id="path12" /><text
       fill="#15b2d3"
       font-family="'DejaVu Sans', 'DejaVu Sans_MSFontService', sans-serif"
       font-weight="700"
       font-size="48px"
       transform="translate(821.393,402)"
       id="text12">TID=0</text><text
       fill="#15b2d3"
       font-family="'DejaVu Sans', 'DejaVu Sans_MSFontService', sans-serif"
       font-weight="700"
       font-size="48px"
       transform="translate(821.393,514)"
       id="text13">TID=1</text><text
       fill="#15b2d3"
       font-family="'DejaVu Sans', 'DejaVu Sans_MSFontService', sans-serif"
       font-weight="700"
       font-size="48px"
       transform="translate(821.393,625)"
       id="text14">TID=2</text><text
       fill="#15b2d3"
       font-family="'DejaVu Sans', 'DejaVu Sans_MSFontService', sans-serif"
       font-weight="700"
       font-size="48px"
       transform="translate(821.393,736)"
       id="text15">TID=3</text><text
       fill="#262626"
       font-family="'DejaVu Sans', 'DejaVu Sans_MSFontService', sans-serif"
       font-weight="700"
       font-size="50px"
       transform="translate(417.038,705)"
       id="text16">Serial</text><text
       fill="#262626"
       font-family="'DejaVu Sans', 'DejaVu Sans_MSFontService', sans-serif"
       font-weight="700"
       font-size="50px"
       transform="translate(400.149,766)"
       id="text17">Region</text><text
       fill="#262626"
       font-family="'DejaVu Sans', 'DejaVu Sans_MSFontService', sans-serif"
       font-weight="700"
       font-size="50px"
       transform="translate(1256.83,705)"
       id="text18">Serial</text><text
       fill="#262626"
       font-family="'DejaVu Sans', 'DejaVu Sans_MSFontService', sans-serif"
       font-weight="700"
       font-size="50px"
       transform="translate(1239.94,766)"
       id="text19">Region</text><text
       fill="#15b2d3"
       font-family="'DejaVu Sans', 'DejaVu Sans_MSFontService', sans-serif"
       font-weight="700"
       font-size="50px"
       transform="translate(811.712,846)"
       id="text20">Parallel</text><text
       fill="#15b2d3"
       font-family="'DejaVu Sans', 'DejaVu Sans_MSFontService', sans-serif"
       font-weight="700"
       font-size="50px"
       transform="translate(820.604,907)"
       id="text21">Regio</text><text
       fill="#15b2d3"
       font-family="'DejaVu Sans', 'DejaVu Sans_MSFontService', sans-serif"
       font-weight="700"
       font-size="50px"
       transform="translate(981.593,907)"
       id="text22">n</text></g></svg>
