<svg width="1902" height="957" xmlns="http://www.w3.org/2000/svg" xmlns:xlink="http://www.w3.org/1999/xlink" xml:space="preserve" overflow="hidden"><defs><clipPath id="clip0"><rect x="116" y="240" width="1902" height="957"/></clipPath></defs><g clip-path="url(#clip0)" transform="translate(-116 -240)"><path d="M136 504.924C136 493.92 144.92 485 155.924 485L672.076 485C683.08 485 692 493.92 692 504.924L692 530.076C692 541.08 683.08 550 672.076 550L155.924 550C144.92 550 136 541.08 136 530.076Z" fill="#92D050" fill-rule="evenodd"/><text fill="#FFFFFF" font-family="DejaVu Sans Mono,DejaVu Sans Mono_MSFontService,sans-serif" font-weight="700" font-size="48" transform="matrix(1 0 0 1 355.667 535)">fork</text><path d="M246.094 550.5 246.094 601.945 228.906 601.945 228.906 550.5ZM263.281 593.351 237.5 644.914 211.719 593.351Z" fill="#D9D9D9"/><path d="M116 662.334C116 651.104 125.104 642 136.334 642L690.666 642C701.896 642 711 651.104 711 662.334L711 743.666C711 754.896 701.896 764 690.666 764L136.334 764C125.104 764 116 754.896 116 743.666Z" fill="#B2ECF8" fill-rule="evenodd"/><path d="M369.094 550.5 369.094 601.945 351.907 601.945 351.906 550.5ZM386.281 593.351 360.5 644.914 334.719 593.351Z" fill="#D9D9D9"/><path d="M492.094 550.5 492.094 601.945 474.907 601.945 474.906 550.5ZM509.282 593.351 483.501 644.914 457.719 593.351Z" fill="#D9D9D9"/><path d="M615.094 550.5 615.094 601.945 597.906 601.945 597.906 550.5ZM632.281 593.351 606.5 644.914 580.719 593.351Z" fill="#D9D9D9"/><path d="M246.094 765.5 246.094 816.945 228.906 816.945 228.906 765.5ZM263.281 808.351 237.5 859.914 211.719 808.351Z" fill="#D9D9D9"/><path d="M369.094 765.5 369.094 816.945 351.907 816.945 351.906 765.5ZM386.281 808.351 360.5 859.914 334.719 808.351Z" fill="#D9D9D9"/><path d="M492.094 765.5 492.094 816.945 474.907 816.945 474.906 765.5ZM509.282 808.351 483.501 859.914 457.719 808.351Z" fill="#D9D9D9"/><path d="M615.094 765.5 615.094 816.945 597.906 816.945 597.906 765.5ZM632.281 808.351 606.5 859.914 580.719 808.351Z" fill="#D9D9D9"/><path d="M136 878.617C136 867.783 144.783 859 155.617 859L672.383 859C683.217 859 692 867.783 692 878.617L692 903.383C692 914.217 683.217 923 672.383 923L155.617 923C144.783 923 136 914.217 136 903.383Z" fill="#92D050" fill-rule="evenodd"/><text fill="#FFFFFF" font-family="DejaVu Sans Mono,DejaVu Sans Mono_MSFontService,sans-serif" font-weight="700" font-size="48" transform="matrix(1 0 0 1 355.416 908)">join</text><path d="M425.094 379.5 425.094 443.234 407.907 443.234 407.906 379.5ZM442.282 434.64 416.5 486.203 390.719 434.64Z" fill="#D9D9D9"/><path d="M425.094 923.5 425.094 974.945 407.907 974.945 407.906 923.5ZM442.282 966.351 416.5 1017.91 390.719 966.352Z" fill="#D9D9D9"/><path d="M763 504.924C763 493.92 771.92 485 782.924 485L1299.08 485C1310.08 485 1319 493.92 1319 504.924L1319 530.076C1319 541.08 1310.08 550 1299.08 550L782.924 550C771.92 550 763 541.08 763 530.076Z" fill="#92D050" fill-rule="evenodd"/><text fill="#FFFFFF" font-family="DejaVu Sans Mono,DejaVu Sans Mono_MSFontService,sans-serif" font-weight="700" font-size="55" transform="matrix(1 0 0 1 974.781 538)">fork</text><path d="M873.094 550.461 873.444 627.275 856.257 627.353 855.906 550.539ZM890.592 618.603 865.047 670.282 839.03 618.838Z" fill="#D9D9D9"/><path d="M821 684.5C821 676.492 827.492 670 835.5 670L893.5 670C901.508 670 908 676.492 908 684.5L908 777.5C908 785.508 901.508 792 893.5 792L835.5 792C827.492 792 821 785.508 821 777.5Z" fill="#B2ECF8" fill-rule="evenodd"/><path d="M996.094 550.5 996.094 567.422 978.906 567.422 978.906 550.5ZM1013.28 558.828 987.5 610.391 961.719 558.829Z" fill="#D9D9D9"/><path d="M1122.09 550.5 1122.09 642.17 1104.91 642.17 1104.91 550.5ZM1139.28 633.576 1113.5 685.138 1087.72 633.576Z" fill="#D9D9D9"/><path d="M873.094 790.5 873.094 816.843 855.906 816.843 855.906 790.5ZM890.281 808.249 864.5 859.812 838.719 808.249Z" fill="#D9D9D9"/><path d="M996.094 749.5 996.094 816.932 978.907 816.932 978.906 749.5ZM1013.28 808.339 987.5 859.901 961.719 808.339Z" fill="#D9D9D9"/><path d="M1119.09 765.5 1119.09 816.945 1101.91 816.945 1101.91 765.5ZM1136.28 808.351 1110.5 859.914 1084.72 808.351Z" fill="#D9D9D9"/><path d="M1243.09 550.5 1243.09 816.763 1225.91 816.763 1225.91 550.5ZM1260.28 808.17 1234.5 859.732 1208.72 808.17Z" fill="#D9D9D9"/><path d="M763 878.617C763 867.783 771.783 859 782.617 859L1299.38 859C1310.22 859 1319 867.783 1319 878.617L1319 903.383C1319 914.217 1310.22 923 1299.38 923L782.617 923C771.783 923 763 914.217 763 903.383Z" fill="#92D050" fill-rule="evenodd"/><text fill="#FFFFFF" font-family="DejaVu Sans Mono,DejaVu Sans Mono_MSFontService,sans-serif" font-weight="700" font-size="55" transform="matrix(1 0 0 1 974.53 911)">join</text><path d="M1053.09 379.5 1053.09 443.234 1035.91 443.234 1035.91 379.5ZM1070.28 434.64 1044.5 486.203 1018.72 434.64Z" fill="#D9D9D9"/><path d="M1053.09 923.5 1053.09 974.945 1035.91 974.945 1035.91 923.5ZM1070.28 966.351 1044.5 1017.91 1018.72 966.352Z" fill="#D9D9D9"/><path d="M1388 502.617C1388 491.783 1396.78 483 1407.62 483L1924.38 483C1935.22 483 1944 491.783 1944 502.617L1944 527.383C1944 538.217 1935.22 547 1924.38 547L1407.62 547C1396.78 547 1388 538.217 1388 527.383Z" fill="#92D050" fill-rule="evenodd"/><text fill="#FFFFFF" font-family="DejaVu Sans Mono,DejaVu Sans Mono_MSFontService,sans-serif" font-weight="700" font-size="55" transform="matrix(1 0 0 1 1599.33 535)">for</text><text fill="#FFFFFF" font-family="DejaVu Sans Mono,DejaVu Sans Mono_MSFontService,sans-serif" font-weight="700" font-size="55" transform="matrix(1 0 0 1 1699.01 535)">k</text><path d="M1799 658.667C1799 647.805 1807.81 639 1818.67 639L1897.33 639C1908.19 639 1917 647.805 1917 658.667L1917 741.333C1917 752.195 1908.19 761 1897.33 761L1818.67 761C1807.81 761 1799 752.195 1799 741.333Z" fill="#B2ECF8" fill-rule="evenodd"/><path d="M1867.09 547.5 1867.09 598.945 1849.91 598.945 1849.91 547.5ZM1884.28 590.351 1858.5 641.914 1832.72 590.352Z" fill="#D9D9D9"/><path d="M1498.09 547.5 1498.09 813.764 1480.91 813.764 1480.91 547.5ZM1515.28 805.17 1489.5 856.733 1463.72 805.17Z" fill="#D9D9D9"/><path d="M1621.09 550.5 1621.09 813.78 1603.91 813.78 1603.91 550.5ZM1638.28 805.186 1612.5 856.748 1586.72 805.186Z" fill="#D9D9D9"/><path d="M1744.09 550.5 1744.09 813.78 1726.91 813.78 1726.91 550.5ZM1761.28 805.186 1735.5 856.748 1709.72 805.186Z" fill="#D9D9D9"/><path d="M1867.09 762.5 1867.09 813.945 1849.91 813.945 1849.91 762.5ZM1884.28 805.351 1858.5 856.914 1832.72 805.351Z" fill="#D9D9D9"/><path d="M1388 875.617C1388 864.783 1396.78 856 1407.62 856L1924.38 856C1935.22 856 1944 864.783 1944 875.617L1944 900.383C1944 911.217 1935.22 920 1924.38 920L1407.62 920C1396.78 920 1388 911.217 1388 900.383Z" fill="#92D050" fill-rule="evenodd"/><text fill="#FFFFFF" font-family="DejaVu Sans Mono,DejaVu Sans Mono_MSFontService,sans-serif" font-weight="700" font-size="55" transform="matrix(1 0 0 1 1599.08 908)">join</text><path d="M1677.09 376.5 1677.09 440.234 1659.91 440.234 1659.91 376.5ZM1694.28 431.64 1668.5 483.202 1642.72 431.64Z" fill="#D9D9D9"/><path d="M1677.09 920.5 1677.09 971.945 1659.91 971.945 1659.91 920.5ZM1694.28 963.351 1668.5 1014.91 1642.72 963.351Z" fill="#D9D9D9"/><text fill="#15B2D3" font-family="DejaVu Sans Mono,DejaVu Sans Mono_MSFontService,sans-serif" font-weight="700" font-size="64" transform="matrix(1 0 0 1 1748.32 726)">single</text><path d="M944 625C944 616.164 951.164 609 960 609L1024 609C1032.84 609 1040 616.164 1040 625L1040 733C1040 741.836 1032.84 749 1024 749L960 749C951.164 749 944 741.836 944 733Z" fill="#B2ECF8" fill-rule="evenodd"/><path d="M1065 697.667C1065 690.119 1071.12 684 1078.67 684L1147.33 684C1154.88 684 1161 690.119 1161 697.667L1161 752.333C1161 759.881 1154.88 766 1147.33 766L1078.67 766C1071.12 766 1065 759.881 1065 752.333Z" fill="#B2ECF8" fill-rule="evenodd"/><text fill="#15B2D3" font-family="DejaVu Sans Mono,DejaVu Sans Mono_MSFontService,sans-serif" font-weight="700" font-size="73" transform="matrix(1 0 0 1 893.333 729)">section</text><text fill="#A6A6A6" font-family="DejaVu Sans Mono,DejaVu Sans Mono_MSFontService,sans-serif" font-weight="700" font-size="83" transform="matrix(1 0 0 1 715.709 345)">Master thread</text><text fill="#A6A6A6" font-family="DejaVu Sans Mono,DejaVu Sans Mono_MSFontService,sans-serif" font-weight="700" font-size="83" transform="matrix(1 0 0 1 715.709 1127)">Master thread</text><text fill="#15B2D3" font-family="DejaVu Sans Mono,DejaVu Sans Mono_MSFontService,sans-serif" font-weight="700" font-size="73" transform="matrix(1 0 0 1 244.639 729)">for loop</text></g></svg>