<?xml version="1.0" encoding="UTF-8"?>
<svg id="Layer_1" data-name="Layer 1" xmlns="http://www.w3.org/2000/svg" viewBox="0 0 600 600">
  <defs>
    <style>
      .cls-1 {
        fill: #1d1d1d;
      }

      .cls-2 {
        fill: #fff;
      }

      .cls-3 {
        fill: #adadad;
      }
    </style>
  </defs>
  <rect class="cls-1" width="600" height="600"/>
  <path id="path16" class="cls-2" d="M117.22,164.08c6.8-.3,11.7,1.4,16.8,2.2,12.7,2.1,25.8,1.2,38.1-2.6,5.1-1.6,8.6-.5,11,4.2.1.2.2.3.3.5,6.4,13.5,12.5,17.5,26.3,19.8,3.3.6,11.7-.1,14.6-1.1,18.1-6.1,33.8-17.6,49.9-28,8.7-5.6,17.1-11.6,25.7-17.3,1.5-1,2.7-2.8,5.3-2.4-.4.9-.8,1.7-1.2,2.5-13.9,20.6-25.8,37.3-41.7,56.5-3.1,3.7-7.5,7.6-11.3,9.6-9.2,4.8-20.6,4.5-30.5.9-35.5-12.6-69.9-27.6-103.3-44.8Z"/>
  <path id="path32" class="cls-3" d="M320.82,229.38c-21.3-2.6-42.4-5.7-63-11.4l-.5-1.6c7.4-3.6,14.7-7.3,22.1-10.8,1.2-.6,2.2.4,3.1,1,11.4,8.1,24,14.2,36.5,20.4.9.4,1.9.6,1.8,2.4Z"/>
  <path id="path34" class="cls-3" d="M278.22,95.08c21.7,2.4,42.8,5.8,63.5,11.3l.2,1.6-21.2,10.7c-1.1.5-2.3.3-3.2-.5-12-8.7-25.4-14.8-38.4-21.6-.3-.1-.4-.6-.9-1.5Z"/>
  <path id="path2057" class="cls-2" d="M481.82,160.58c-6.8.4-11.7-1.4-16.8-2.2-12.7-2.1-25.8-1.2-38.1,2.6-5.1,1.6-8.6.5-11-4.2-.1-.2-.2-.3-.3-.5-6.4-13.5-12.5-17.5-26.3-19.8-3.3-.6-11.7.1-14.6,1.1-18.1,6.1-33.8,17.6-49.9,28-8.7,5.6-17.1,11.6-25.7,17.3-1.5,1-2.7,2.8-5.3,2.4.4-.9.8-1.7,1.2-2.5,13.9-20.6,25.8-37.3,41.7-56.5,3.1-3.7,7.5-7.6,11.3-9.6,9.2-4.8,20.6-4.5,30.5-.9,35.5,12.6,70,27.6,103.3,44.8h0Z"/>
  <g>
    <path class="cls-2" d="M139.02,267.25h27.7l-26.12,122.98h-27.74l10.12-47.64h-16.63l-10.12,47.64h-27.7l1.83-8.51-23.34-1.2.04-.21,23.87-1.3,2-9.39-27.25-1.37.04-.21,27.84-1.55,2.99-13.96-17.16-.84.04-.21,17.54-.98.7-3.23-28.86-1.44.04-.21,29.53-1.62,1.86-8.79-18.63-.95.04-.21,19.05-1.05.95-4.43-16.42-.84.04-.21,16.8-.91,1.23-5.87-14.06-.7.04-.21,14.41-.77,1.58-7.59-13.57-.67.07-.21,13.85-.77,2.36-11.04-18.63-.91.07-.21,19.02-1.05.88-4.11-18.6-.95.04-.21,19.05-1.05,1.23-5.94-26.51-1.34.04-.21,25.38-1.37-10.62-14.13h43.07l-10.12,47.64h16.63l10.12-47.64Z"/>
    <path class="cls-2" d="M253.74,290.32c.98,4.68.91,9.6-.14,14.66-1.09,5.1-3.13,10.02-6.08,14.66-2.85,4.5-6.43,8.51-10.62,11.99-4.18,3.45-8.79,6.15-13.68,8.05-5.06,1.97-10.2,2.95-15.29,2.95h-11.07l-10.12,47.64h-27.7l1.48-6.86-27-1.51.04-.21,27.6-1.37,1.27-5.87-19.09-1.09.04-.21,19.51-.95.88-4.08-19.09-1.05.04-.21,19.55-.98,1.69-8.05-20.53-1.12.04-.21,21.02-1.05,2.07-9.77-14.55-.81.04-.21,14.91-.74,2.43-11.46-17.65-.98.04-.21,18.04-.88,2.07-9.67-29.32-1.65.04-.21,29.99-1.48,1.86-8.72-17.65-.98.04-.21,18.04-.91,1.79-8.33-27.7-1.55.04-.21,28.34-1.41,2-9.35-23.8-1.34.04-.21,24.08-1.2-11.74-15.64,54.07.04c5.1,0,9.81,1.02,14.06,2.95,4.08,1.9,7.52,4.64,10.23,8.09s4.57,7.49,5.52,11.95ZM225.89,304.98c1.16-5.48-2.36-9.95-7.84-9.95h-11.07l-4.22,19.9h11.07c5.48,0,10.9-4.46,12.06-9.95Z"/>
    <path class="cls-2" d="M327.25,266.94c4.29,0,8.44.46,12.41,1.3l-5.84,27.46-3.09,14.55-11.64-15.5c-9.84.63-19.48,5.34-26.79,12.45l-.11.49-.35-.04c-5.84,5.8-10.12,13.15-11.81,21.09-3.83,18,7.03,32.8,24.47,34.03l18.39-15.64-3.13,14.73-5.84,27.39c-4.32.88-8.65,1.3-12.94,1.3-8.33,0-16.07-1.62-23.03-4.85-1.12-.53-2.21-1.09-3.27-1.69l-26.02-1.34.07-.21,21.66-1.16c-2.78-2-5.31-4.29-7.59-6.82l-14.27-.81.04-.21,12.87-.63c-.11-.14-.21-.25-.28-.39-1.44-1.83-2.74-3.73-3.87-5.73l-17.79-1.02.04-.21,16.66-.81c-.74-1.48-1.41-2.99-2-4.54l-13.36-.77.07-.21,12.73-.63c-.63-1.83-1.16-3.76-1.55-5.7-.46-2.14-.77-4.29-.95-6.47l-16.8-.81.04-.21,16.63-.74c-.25-4.85.14-9.84,1.12-14.91l-2.71-.21.04-.21,2.81-.18c.04-.11.04-.25.07-.35.39-1.83.84-3.62,1.37-5.41l-5.1-.39.04-.21,5.38-.35c1.05-3.41,2.39-6.75,4.01-10.02l-17.33-.98.07-.21,18.32-.91c.77-1.44,1.58-2.88,2.43-4.29l-7.73-.46.04-.21,8.37-.42s.07-.11.14-.18c1.58-2.53,3.34-4.96,5.2-7.31l-21.23-1.2.07-.21,23.31-1.16c1.3-1.48,2.67-2.95,4.08-4.36l-26.65-1.51.04-.21,30.02-1.48c.84-.74,1.69-1.48,2.57-2.21,3.16-2.6,6.5-4.96,9.95-7.07l-29.71-1.51.04-.21,36.53-2c1.86-.88,3.73-1.69,5.66-2.43,8.3-3.23,16.73-4.89,25.07-4.89Z"/>
    <path class="cls-2" d="M405.61,295.31l-20.21,95.1h-27.7l20.21-95.1c.04-.11-.04-.21-.14-.21h-12.59l-1.65,7.66h-27.7l7.52-35.37h40.29c15.4,0,25.24,12.55,21.97,27.91Z"/>
    <path class="cls-2" d="M480.21,303.75l-10.65,50.1c-2.07,9.7-7.8,18.88-16.14,25.73-8.37,6.89-18.32,10.69-28.05,10.69s-18.07-3.8-23.48-10.69c-5.41-6.86-7.24-16.03-5.17-25.73l10.62-50.1c2.07-9.7,7.8-18.88,16.14-25.73,8.37-6.89,18.32-10.69,28.05-10.69s18.07,3.8,23.48,10.69c5.41,6.86,7.24,16.03,5.2,25.73ZM452.51,303.75c1.02-4.78-2.07-8.72-6.89-8.72s-9.56,3.94-10.58,8.72l-10.62,50.1c-1.05,4.82,2.04,8.72,6.86,8.72s9.56-3.9,10.58-8.72l10.65-50.1Z"/>
    <path class="cls-2" d="M553.69,295.31l-20.21,95.1h-27.7l20.21-95.1c.04-.11-.04-.21-.14-.21h-12.59l-1.65,7.66h-27.7l7.52-35.37h40.29c15.4,0,25.24,12.55,21.97,27.91Z"/>
  </g>
  <g>
    <path class="cls-2" d="M57.44,405.55h42.94l-1.34,4.67c-.34,1.28-.95,2.54-1.82,3.78s-1.76,2.24-2.66,3.01l-26.49,19.33-.06.38h23.49l-3.33,11.52h-42.94l3.26-11.46,26.37-19.26.13-.45h-20.8l3.26-11.52Z"/>
    <path class="cls-2" d="M109.79,436.71h18.49l5.63-19.65h-18.56l3.26-11.52h31.81l-10.11,35.26c-.34,1.15-.86,2.19-1.57,3.1-.7.92-1.54,1.7-2.5,2.34-.96.64-2.02,1.13-3.17,1.47-1.15.34-2.3.51-3.46.51h-36.41l6.98-24.32h18.69l-7.81,8.26-1.28,4.54Z"/>
    <path class="cls-2" d="M191.84,405.55h13.25l-10.11,35.26c-.34,1.15-.86,2.19-1.57,3.1-.7.92-1.54,1.7-2.5,2.34-.96.64-2.02,1.13-3.17,1.47-1.15.34-2.3.51-3.46.51h-27.84c-1.15,0-2.2-.17-3.14-.51-.94-.34-1.71-.83-2.3-1.47-.6-.64-1-1.42-1.22-2.34-.21-.92-.15-1.95.19-3.1l7.74-27.01-3.07-8.25h18.69l-8.9,31.17h18.49l8.9-31.17Z"/>
    <path class="cls-2" d="M207.87,432.17c-.96-.34-1.74-.83-2.34-1.47-.6-.64-.99-1.42-1.18-2.33-.19-.92-.12-1.95.22-3.1l3.52-12.29c.34-1.15.86-2.19,1.57-3.1.7-.92,1.54-1.7,2.5-2.34s2.02-1.13,3.17-1.47c1.15-.34,2.3-.51,3.46-.51h34.37l-1.34,4.67c-.21.73-.49,1.48-.83,2.27s-.74,1.53-1.18,2.21c-.45.68-.96,1.25-1.54,1.7-.58.45-1.18.67-1.82.67h-26.24l-1.22,4.1h21.12c1.15,0,2.21.17,3.17.51.96.34,1.74.83,2.34,1.47.6.64.99,1.42,1.18,2.34.19.92.12,1.95-.22,3.1l-3.52,12.22c-.34,1.15-.86,2.19-1.57,3.1-.7.92-1.54,1.7-2.5,2.34-.96.64-2.02,1.13-3.17,1.47-1.15.34-2.3.51-3.46.51h-34.37l3.33-11.52h29.69l1.15-4.03h-21.12c-1.15,0-2.21-.17-3.17-.51Z"/>
    <path class="cls-2" d="M254.62,448.23c-1.15,0-2.2-.17-3.14-.51-.94-.34-1.71-.83-2.3-1.47-.6-.64-1-1.42-1.22-2.34-.21-.92-.15-1.95.19-3.1l8-27.84c.34-1.15.86-2.19,1.57-3.1.7-.92,1.54-1.7,2.5-2.34s2.02-1.13,3.17-1.47c1.15-.34,2.3-.51,3.46-.51h31.68l-1.34,4.67c-.21.73-.49,1.48-.83,2.27-.34.79-.74,1.53-1.18,2.21s-.96,1.25-1.54,1.7-1.18.67-1.82.67h-23.55l-5.63,19.65h27.01l-3.33,11.52h-31.68Z"/>
    <path class="cls-2" d="M300.38,417.07l3.26-11.52h41.02l-1.34,4.67c-.21.73-.49,1.48-.83,2.27-.34.79-.74,1.53-1.18,2.21s-.96,1.25-1.54,1.7-1.18.67-1.82.67h-10.5l-8.96,31.17h14.01l-30.97,29.82,13.89-22.14h-12.35l11.13-38.85h-13.82Z"/>
    <path class="cls-2" d="M373.66,432.68l-1.15,4.03h29.69l-3.33,11.52h-42.94l5.63-19.65c.34-1.15.86-2.19,1.57-3.1.7-.92,1.54-1.7,2.5-2.34.96-.64,2.02-1.13,3.17-1.47,1.15-.34,2.3-.51,3.46-.51h21.12l1.22-4.1h-29.69l3.26-11.52h34.37c1.15,0,2.21.17,3.17.51.96.34,1.74.83,2.34,1.47.6.64.99,1.42,1.18,2.34s.12,1.95-.22,3.1l-3.52,12.29c-.34,1.15-.87,2.19-1.6,3.1-.73.92-1.57,1.7-2.53,2.33-.96.64-2.01,1.13-3.14,1.47-1.13.34-2.27.51-3.42.51h-21.12Z"/>
    <path class="cls-2" d="M459.1,412.97l-8,27.84c-.34,1.15-.86,2.19-1.57,3.1-.7.92-1.54,1.7-2.5,2.34-.96.64-2.02,1.13-3.17,1.47-1.15.34-2.3.51-3.46.51h-27.84c-1.15,0-2.2-.17-3.14-.51-.94-.34-1.71-.83-2.3-1.47-.6-.64-1-1.42-1.22-2.34-.21-.92-.15-1.95.19-3.1l8-27.84c.34-1.15.86-2.19,1.57-3.1s1.54-1.7,2.5-2.34,2.02-1.13,3.17-1.47c1.15-.34,2.3-.51,3.46-.51h27.84c1.15,0,2.21.17,3.17.51.96.34,1.74.83,2.34,1.47.6.64.99,1.42,1.18,2.34s.12,1.95-.22,3.1ZM420.57,436.71h18.49l5.63-19.65h-18.49l-5.63,19.65ZM426.78,426.92c.47-1.49,1.39-2.73,2.75-3.71s2.88-1.47,4.54-1.47,2.91.49,3.74,1.47c.83.98,1.01,2.22.54,3.71-.43,1.49-1.32,2.72-2.69,3.68s-2.88,1.44-4.54,1.44-2.91-.48-3.74-1.44-1.03-2.19-.61-3.68Z"/>
    <path class="cls-2" d="M471.84,432.68l-1.15,4.03h29.69l-3.33,11.52h-42.94l5.63-19.65c.34-1.15.86-2.19,1.57-3.1.7-.92,1.54-1.7,2.5-2.34.96-.64,2.02-1.13,3.17-1.47,1.15-.34,2.3-.51,3.46-.51h21.12l1.22-4.1h-29.69l3.26-11.52h34.37c1.15,0,2.21.17,3.17.51.96.34,1.74.83,2.34,1.47.6.64.99,1.42,1.18,2.34s.12,1.95-.22,3.1l-3.52,12.29c-.34,1.15-.87,2.19-1.6,3.1-.73.92-1.57,1.7-2.53,2.33-.96.64-2.01,1.13-3.14,1.47-1.13.34-2.27.51-3.42.51h-21.12Z"/>
    <path class="cls-2" d="M536.35,432.68h-29.69l7.74-27.13h42.94l-1.34,4.67c-.21.73-.49,1.48-.83,2.27-.34.79-.74,1.53-1.18,2.21s-.96,1.25-1.54,1.7-1.18.67-1.82.67h-26.24l-1.22,4.1h21.12c1.15,0,2.21.17,3.17.51.96.34,1.74.83,2.33,1.47.6.64.99,1.42,1.18,2.34.19.92.12,1.95-.22,3.1l-3.52,12.22c-.34,1.15-.86,2.19-1.57,3.1-.7.92-1.54,1.7-2.5,2.34-.96.64-2.02,1.13-3.17,1.47-1.15.34-2.3.51-3.46.51h-34.37l3.33-11.52h29.69l1.15-4.03Z"/>
  </g>
</svg>